<svg width="40" height="40" viewBox="0 0 54 54" fill="none" xmlns="http://www.w3.org/2000/svg">
<path d="M53.5268 27.1077L42.3003 21.0625V18.8998C42.3003 18.403 41.898 17.9998 41.4003 17.9998H38.7003V17.0999C38.7003 16.4078 38.6283 15.7328 38.5123 15.0731L44.455 12.527C44.7861 12.3856 45.0003 12.0599 45.0003 11.6999V1.79992H50.4003C50.898 1.79992 51.3003 1.39671 51.3003 0.899959C51.3003 0.403205 50.898 0 50.4003 0H44.1004C43.6027 0 43.2004 0.403205 43.2004 0.899959V11.1068L38.0587 13.3109C37.2299 10.9008 35.645 8.8415 33.5768 7.43033C34.4957 6.7778 35.1005 5.71046 35.1005 4.50001C35.1005 2.51457 33.4859 0.900065 31.5005 0.900065C31.0028 0.900065 30.6006 1.30327 30.6006 1.80002C30.6006 2.29678 31.0028 2.69998 31.5005 2.69998C32.4932 2.69998 33.3006 3.50724 33.3006 4.50001C33.3006 5.49267 32.4933 6.30003 31.5005 6.30003C31.4987 6.30003 31.4978 6.30098 31.496 6.30098C30.1109 5.72228 28.5926 5.40007 27.0005 5.40007C25.4085 5.40007 23.8902 5.72228 22.5051 6.30098C22.5033 6.30098 22.5023 6.30003 22.5005 6.30003C21.5079 6.30003 20.7005 5.49278 20.7005 4.50001C20.7005 3.50734 21.5077 2.69998 22.5005 2.69998C22.9982 2.69998 23.4005 2.29678 23.4005 1.80002C23.4005 1.30327 22.9982 0.900065 22.5005 0.900065C20.5151 0.900065 18.9006 2.51468 18.9006 4.50001C18.9006 5.71046 19.5053 6.77791 20.4243 7.43033C18.356 8.8415 16.7712 10.9008 15.9423 13.3109L10.8006 11.1068V0.899959C10.8006 0.403205 10.3984 0 9.90067 0H3.60043C3.10273 0 2.70047 0.403205 2.70047 0.899959C2.70047 1.39671 3.10273 1.79992 3.60043 1.79992H9.0004V11.6999C9.0004 12.0599 9.2146 12.3856 9.54577 12.527L15.4885 15.0731C15.3724 15.7328 15.3003 16.4078 15.3003 17.0999V17.9998H12.6003C12.1026 17.9998 11.7004 18.403 11.7004 18.8998V21.0625L0.473937 27.1077C0.036561 27.3426 -0.12818 27.8889 0.107646 28.3263C0.270595 28.6287 0.581093 28.7997 0.901399 28.7997C1.04536 28.7997 1.19123 28.7656 1.32707 28.6917L12.7984 22.5151L27.0021 30.4693L41.2616 22.5476L52.6736 28.6919C52.8095 28.7657 52.9553 28.7999 53.0992 28.7999C53.4196 28.7999 53.7301 28.6289 53.893 28.3264C54.1288 27.8889 53.9642 27.3427 53.5268 27.1077ZM36.9003 17.9998H17.1003V17.0999C17.1003 11.6414 21.5418 7.19988 27.0003 7.19988C32.4588 7.19988 36.9003 11.6414 36.9003 17.0999V17.9998Z" fill="#B22222"/>
<path d="M47.3771 36.2089L42.3003 31.978V24.0293L27.9004 32.0294V50.3541C35.9175 49.8844 42.3003 43.2325 42.3003 35.1001V34.3216L45.6969 37.1521L41.4813 46.4275C41.3616 46.6903 41.376 46.9954 41.5191 47.2464L45.119 53.5463C45.2846 53.837 45.5879 54 45.901 54C46.0523 54 46.2062 53.9613 46.3465 53.8812C46.7785 53.6346 46.9288 53.0847 46.6813 52.6527L43.3099 46.7532L47.6191 37.2718C47.7875 36.9027 47.6876 36.468 47.3771 36.2089Z" fill="#8B0000"/>
<path d="M11.7004 31.978L6.62357 36.2089C6.31307 36.4681 6.2132 36.9027 6.38152 37.2718L10.6907 46.7533L7.31935 52.6527C7.07181 53.0847 7.2221 53.6346 7.6541 53.8812C7.79448 53.9613 7.94836 54 8.0996 54C8.41284 54 8.71606 53.837 8.88164 53.5463L12.4816 47.2464C12.6247 46.9953 12.6391 46.6902 12.5193 46.4275L8.30378 37.1521L11.7004 34.3216V35.1001C11.7004 43.2324 18.0831 49.8843 26.1003 50.3541V32.0275L11.7004 23.9635V31.978Z" fill="#8B0000"/>
</svg>
